<svg width="60" height="60" viewBox="0 0 60 60" fill="none" xmlns="http://www.w3.org/2000/svg">
<circle cx="30" cy="30" r="30" fill="#DBDBDB"/>
<circle cx="30" cy="30" r="30" fill="url(#paint0_linear)"/>
<path d="M11.7627 34.7378V41H8.10059V23.2266H15.0342C16.3688 23.2266 17.5407 23.4707 18.5498 23.959C19.5671 24.4473 20.3483 25.1431 20.8936 26.0464C21.4388 26.9416 21.7114 27.9629 21.7114 29.1104C21.7114 30.8519 21.1133 32.2272 19.917 33.2363C18.7288 34.2373 17.0809 34.7378 14.9731 34.7378H11.7627ZM11.7627 31.7715H15.0342C16.0026 31.7715 16.7391 31.5436 17.2437 31.0879C17.7563 30.6322 18.0127 29.9811 18.0127 29.1348C18.0127 28.264 17.7563 27.5601 17.2437 27.0229C16.731 26.4858 16.0229 26.2091 15.1196 26.1929H11.7627V31.7715ZM33.4546 36.3369C33.4546 35.6452 33.2104 35.1162 32.7222 34.75C32.2339 34.3757 31.355 33.985 30.0854 33.5781C28.8159 33.1631 27.8109 32.7562 27.0703 32.3574C25.0521 31.2669 24.043 29.798 24.043 27.9507C24.043 26.9904 24.3115 26.1359 24.8486 25.3872C25.3939 24.6304 26.1711 24.0404 27.1802 23.6172C28.1974 23.194 29.3368 22.9824 30.5981 22.9824C31.8677 22.9824 32.9989 23.2144 33.9917 23.6782C34.9845 24.134 35.7536 24.7809 36.2988 25.6191C36.8522 26.4574 37.1289 27.4095 37.1289 28.4756H33.4668C33.4668 27.6618 33.2104 27.0311 32.6978 26.5835C32.1851 26.1278 31.4648 25.8999 30.5371 25.8999C29.6419 25.8999 28.9461 26.0911 28.4497 26.4736C27.9533 26.848 27.7051 27.3444 27.7051 27.9629C27.7051 28.5407 27.994 29.0249 28.5718 29.4155C29.1577 29.8062 30.0163 30.1724 31.1475 30.5142C33.2308 31.1408 34.7485 31.918 35.7007 32.8457C36.6528 33.7734 37.1289 34.929 37.1289 36.3125C37.1289 37.8506 36.547 39.0591 35.3833 39.938C34.2196 40.8088 32.653 41.2441 30.6836 41.2441C29.3164 41.2441 28.0713 40.9959 26.9482 40.4995C25.8252 39.995 24.9666 39.3073 24.3726 38.4365C23.7866 37.5658 23.4937 36.5566 23.4937 35.4092H27.168C27.168 37.3704 28.3398 38.3511 30.6836 38.3511C31.5544 38.3511 32.2339 38.1761 32.7222 37.8262C33.2104 37.4681 33.4546 36.9717 33.4546 36.3369ZM45.7471 31.2344L49.4458 23.2266H53.4497L47.6147 34.5547V41H43.8916V34.5547L38.0566 23.2266H42.0728L45.7471 31.2344Z" fill="url(#paint1_linear)"/>
<defs>
<linearGradient id="paint0_linear" x1="21.8" y1="12.56" x2="41.64" y2="41.68" gradientUnits="userSpaceOnUse">
<stop stop-color="#042B6F" stop-opacity="0.69"/>
<stop offset="0.161458" stop-color="#1C2463" stop-opacity="0.5"/>
<stop offset="0.213542" stop-color="#24225F" stop-opacity="0.5"/>
<stop offset="0.276042" stop-color="#2E205B" stop-opacity="0.5"/>
<stop offset="0.40625" stop-color="#421B51" stop-opacity="0.5"/>
<stop offset="0.463542" stop-color="#4A184D" stop-opacity="0.5"/>
<stop offset="0.630208" stop-color="#631242" stop-opacity="0.5"/>
<stop offset="0.723958" stop-color="#710E3B" stop-opacity="0.5"/>
<stop offset="0.802083" stop-color="#7C0B35" stop-opacity="0.5"/>
<stop offset="0.916667" stop-color="#8E062D" stop-opacity="0.5"/>
<stop offset="1" stop-color="#9A0327" stop-opacity="0.59"/>
</linearGradient>
<linearGradient id="paint1_linear" x1="13" y1="5.5" x2="46" y2="55" gradientUnits="userSpaceOnUse">
<stop stop-color="#042B6F"/>
<stop offset="1" stop-color="#042B6F"/>
</linearGradient>
</defs>
</svg>
