<svg width="161" height="60" viewBox="0 0 161 60" fill="none" xmlns="http://www.w3.org/2000/svg">
<path d="M70.028 27.172V33.864C70.028 34.9 69.734 35.698 69.146 36.258C68.5673 36.818 67.7833 37.098 66.794 37.098C65.758 37.098 64.9273 36.804 64.302 36.216C63.6767 35.628 63.364 34.7927 63.364 33.71H65.744C65.744 34.1207 65.828 34.4333 65.996 34.648C66.164 34.8533 66.4067 34.956 66.724 34.956C67.0133 34.956 67.2373 34.8627 67.396 34.676C67.5547 34.4893 67.634 34.2187 67.634 33.864V27.172H70.028ZM74.3558 29.09V31.078H77.5618V32.926H74.3558V35.082H77.9818V37H71.9618V27.172H77.9818V29.09H74.3558ZM84.548 37L82.504 33.29H81.93V37H79.536V27.172H83.554C84.3286 27.172 84.9866 27.3073 85.528 27.578C86.0786 27.8487 86.4893 28.222 86.76 28.698C87.0306 29.1647 87.166 29.6873 87.166 30.266C87.166 30.9193 86.9793 31.5027 86.606 32.016C86.242 32.5293 85.7006 32.8933 84.982 33.108L87.25 37H84.548ZM81.93 31.596H83.414C83.8526 31.596 84.1793 31.4887 84.394 31.274C84.618 31.0593 84.73 30.756 84.73 30.364C84.73 29.9907 84.618 29.6967 84.394 29.482C84.1793 29.2673 83.8526 29.16 83.414 29.16H81.93V31.596ZM92.2248 37.098C91.5061 37.098 90.8621 36.9813 90.2928 36.748C89.7234 36.5147 89.2661 36.1693 88.9208 35.712C88.5848 35.2547 88.4074 34.704 88.3888 34.06H90.9368C90.9741 34.424 91.1001 34.704 91.3148 34.9C91.5294 35.0867 91.8094 35.18 92.1548 35.18C92.5094 35.18 92.7894 35.1007 92.9948 34.942C93.2001 34.774 93.3028 34.5453 93.3028 34.256C93.3028 34.0133 93.2188 33.8127 93.0508 33.654C92.8921 33.4953 92.6914 33.3647 92.4488 33.262C92.2154 33.1593 91.8794 33.0427 91.4408 32.912C90.8061 32.716 90.2881 32.52 89.8868 32.324C89.4854 32.128 89.1401 31.8387 88.8508 31.456C88.5614 31.0733 88.4168 30.574 88.4168 29.958C88.4168 29.0433 88.7481 28.3293 89.4108 27.816C90.0734 27.2933 90.9368 27.032 92.0008 27.032C93.0834 27.032 93.9561 27.2933 94.6188 27.816C95.2814 28.3293 95.6361 29.048 95.6828 29.972H93.0928C93.0741 29.6547 92.9574 29.4073 92.7428 29.23C92.5281 29.0433 92.2528 28.95 91.9168 28.95C91.6274 28.95 91.3941 29.0293 91.2168 29.188C91.0394 29.3373 90.9508 29.5567 90.9508 29.846C90.9508 30.1633 91.1001 30.4107 91.3988 30.588C91.6974 30.7653 92.1641 30.9567 92.7988 31.162C93.4334 31.3767 93.9468 31.582 94.3388 31.778C94.7401 31.974 95.0854 32.2587 95.3748 32.632C95.6641 33.0053 95.8088 33.486 95.8088 34.074C95.8088 34.634 95.6641 35.1427 95.3748 35.6C95.0948 36.0573 94.6841 36.4213 94.1428 36.692C93.6014 36.9627 92.9621 37.098 92.2248 37.098ZM99.6761 29.09V31.078H102.882V32.926H99.6761V35.082H103.302V37H97.2821V27.172H103.302V29.09H99.6761ZM113.284 27.172L109.882 33.752V37H107.488V33.752L104.086 27.172H106.802L108.706 31.288L110.596 27.172H113.284ZM120.772 37.098C120.053 37.098 119.409 36.9813 118.84 36.748C118.27 36.5147 117.813 36.1693 117.468 35.712C117.132 35.2547 116.954 34.704 116.936 34.06H119.484C119.521 34.424 119.647 34.704 119.862 34.9C120.076 35.0867 120.356 35.18 120.702 35.18C121.056 35.18 121.336 35.1007 121.542 34.942C121.747 34.774 121.85 34.5453 121.85 34.256C121.85 34.0133 121.766 33.8127 121.598 33.654C121.439 33.4953 121.238 33.3647 120.996 33.262C120.762 33.1593 120.426 33.0427 119.988 32.912C119.353 32.716 118.835 32.52 118.434 32.324C118.032 32.128 117.687 31.8387 117.398 31.456C117.108 31.0733 116.964 30.574 116.964 29.958C116.964 29.0433 117.295 28.3293 117.958 27.816C118.62 27.2933 119.484 27.032 120.548 27.032C121.63 27.032 122.503 27.2933 123.166 27.816C123.828 28.3293 124.183 29.048 124.23 29.972H121.64C121.621 29.6547 121.504 29.4073 121.29 29.23C121.075 29.0433 120.8 28.95 120.464 28.95C120.174 28.95 119.941 29.0293 119.764 29.188C119.586 29.3373 119.498 29.5567 119.498 29.846C119.498 30.1633 119.647 30.4107 119.946 30.588C120.244 30.7653 120.711 30.9567 121.346 31.162C121.98 31.3767 122.494 31.582 122.886 31.778C123.287 31.974 123.632 32.2587 123.922 32.632C124.211 33.0053 124.356 33.486 124.356 34.074C124.356 34.634 124.211 35.1427 123.922 35.6C123.642 36.0573 123.231 36.4213 122.69 36.692C122.148 36.9627 121.509 37.098 120.772 37.098ZM132.899 27.172V29.09H130.295V37H127.901V29.09H125.297V27.172H132.899ZM138.748 37.098C137.824 37.098 136.975 36.8833 136.2 36.454C135.435 36.0247 134.824 35.4273 134.366 34.662C133.918 33.8873 133.694 33.0193 133.694 32.058C133.694 31.0967 133.918 30.2333 134.366 29.468C134.824 28.7027 135.435 28.1053 136.2 27.676C136.975 27.2467 137.824 27.032 138.748 27.032C139.672 27.032 140.517 27.2467 141.282 27.676C142.057 28.1053 142.664 28.7027 143.102 29.468C143.55 30.2333 143.774 31.0967 143.774 32.058C143.774 33.0193 143.55 33.8873 143.102 34.662C142.654 35.4273 142.048 36.0247 141.282 36.454C140.517 36.8833 139.672 37.098 138.748 37.098ZM138.748 34.914C139.532 34.914 140.158 34.6527 140.624 34.13C141.1 33.6073 141.338 32.9167 141.338 32.058C141.338 31.19 141.1 30.4993 140.624 29.986C140.158 29.4633 139.532 29.202 138.748 29.202C137.955 29.202 137.32 29.4587 136.844 29.972C136.378 30.4853 136.144 31.1807 136.144 32.058C136.144 32.926 136.378 33.6213 136.844 34.144C137.32 34.6573 137.955 34.914 138.748 34.914ZM150.118 37L148.074 33.29H147.5V37H145.106V27.172H149.124C149.899 27.172 150.557 27.3073 151.098 27.578C151.649 27.8487 152.06 28.222 152.33 28.698C152.601 29.1647 152.736 29.6873 152.736 30.266C152.736 30.9193 152.55 31.5027 152.176 32.016C151.812 32.5293 151.271 32.8933 150.552 33.108L152.82 37H150.118ZM147.5 31.596H148.984C149.423 31.596 149.75 31.4887 149.964 31.274C150.188 31.0593 150.3 30.756 150.3 30.364C150.3 29.9907 150.188 29.6967 149.964 29.482C149.75 29.2673 149.423 29.16 148.984 29.16H147.5V31.596ZM156.633 29.09V31.078H159.839V32.926H156.633V35.082H160.259V37H154.239V27.172H160.259V29.09H156.633Z" fill="black"/>
<path d="M59.25 30C59.25 46.1543 46.1543 59.25 30 59.25C13.8457 59.25 0.75 46.1543 0.75 30C0.75 13.8457 13.8457 0.75 30 0.75C46.1543 0.75 59.25 13.8457 59.25 30Z" fill="url(#paint0_linear)" stroke="white" stroke-width="1.5"/>
<path d="M11.7627 34.7378V41H8.10059V23.2266H15.0342C16.3688 23.2266 17.5407 23.4707 18.5498 23.959C19.5671 24.4473 20.3483 25.1431 20.8936 26.0464C21.4388 26.9416 21.7114 27.9629 21.7114 29.1104C21.7114 30.8519 21.1133 32.2272 19.917 33.2363C18.7288 34.2373 17.0809 34.7378 14.9731 34.7378H11.7627ZM11.7627 31.7715H15.0342C16.0026 31.7715 16.7391 31.5436 17.2437 31.0879C17.7563 30.6322 18.0127 29.9811 18.0127 29.1348C18.0127 28.264 17.7563 27.5601 17.2437 27.0229C16.731 26.4858 16.0229 26.2091 15.1196 26.1929H11.7627V31.7715ZM33.4546 36.3369C33.4546 35.6452 33.2104 35.1162 32.7222 34.75C32.2339 34.3757 31.355 33.985 30.0854 33.5781C28.8159 33.1631 27.8109 32.7562 27.0703 32.3574C25.0521 31.2669 24.043 29.798 24.043 27.9507C24.043 26.9904 24.3115 26.1359 24.8486 25.3872C25.3939 24.6304 26.1711 24.0404 27.1802 23.6172C28.1974 23.194 29.3368 22.9824 30.5981 22.9824C31.8677 22.9824 32.9989 23.2144 33.9917 23.6782C34.9845 24.134 35.7536 24.7809 36.2988 25.6191C36.8522 26.4574 37.1289 27.4095 37.1289 28.4756H33.4668C33.4668 27.6618 33.2104 27.0311 32.6978 26.5835C32.1851 26.1278 31.4648 25.8999 30.5371 25.8999C29.6419 25.8999 28.9461 26.0911 28.4497 26.4736C27.9533 26.848 27.7051 27.3444 27.7051 27.9629C27.7051 28.5407 27.994 29.0249 28.5718 29.4155C29.1577 29.8062 30.0163 30.1724 31.1475 30.5142C33.2308 31.1408 34.7485 31.918 35.7007 32.8457C36.6528 33.7734 37.1289 34.929 37.1289 36.3125C37.1289 37.8506 36.547 39.0591 35.3833 39.938C34.2196 40.8088 32.653 41.2441 30.6836 41.2441C29.3164 41.2441 28.0713 40.9959 26.9482 40.4995C25.8252 39.995 24.9666 39.3073 24.3726 38.4365C23.7866 37.5658 23.4937 36.5566 23.4937 35.4092H27.168C27.168 37.3704 28.3398 38.3511 30.6836 38.3511C31.5544 38.3511 32.2339 38.1761 32.7222 37.8262C33.2104 37.4681 33.4546 36.9717 33.4546 36.3369ZM45.7471 31.2344L49.4458 23.2266H53.4497L47.6147 34.5547V41H43.8916V34.5547L38.0566 23.2266H42.0728L45.7471 31.2344Z" fill="url(#paint1_linear)"/>
<defs>
<linearGradient id="paint0_linear" x1="21.8" y1="12.56" x2="41.64" y2="41.68" gradientUnits="userSpaceOnUse">
<stop stop-color="#042B6F" stop-opacity="0.69"/>
<stop offset="0.161458" stop-color="#1C2463" stop-opacity="0.5"/>
<stop offset="0.213542" stop-color="#24225F" stop-opacity="0.5"/>
<stop offset="0.276042" stop-color="#2E205B" stop-opacity="0.5"/>
<stop offset="0.40625" stop-color="#421B51" stop-opacity="0.5"/>
<stop offset="0.463542" stop-color="#4A184D" stop-opacity="0.5"/>
<stop offset="0.630208" stop-color="#631242" stop-opacity="0.5"/>
<stop offset="0.723958" stop-color="#710E3B" stop-opacity="0.5"/>
<stop offset="0.802083" stop-color="#7C0B35" stop-opacity="0.5"/>
<stop offset="0.916667" stop-color="#8E062D" stop-opacity="0.5"/>
<stop offset="1" stop-color="#9A0327" stop-opacity="0.59"/>
</linearGradient>
<linearGradient id="paint1_linear" x1="13" y1="5.49999" x2="46" y2="55" gradientUnits="userSpaceOnUse">
<stop stop-color="#042B6F"/>
<stop offset="1" stop-color="#042B6F"/>
</linearGradient>
</defs>
</svg>
